# xmcd CD database file
# Copyright (C) 1993-1998 Ti Kan
# 
# Track frame offsets:
#     182
#     15552
#     37095
#     55480
#     78210
#     97560
#     107890
#     123787
#     142225
#     160295
#     180340
#     192390
#     210347
#     228937
#     247087
#     261352
#     273675
#     290002
#     306242
#     322702
# 
# Disc length: 4519 seconds
# 
# Revision: 1
# Processed by: cddbd v1.4b41PL1 Copyright (c) Steve Scherf et al.
# Submitted via: DiscPlay 4.0.4
# 
DISCID=1a11a514
DTITLE=Various Artist - Tant qu'il y aura des slows  CD 2
DYEAR=1900
DGENRE=
TTITLE0=Against all odds PHIL COLLINS
TTITLE1=Mr and Mrs Jones BILLY PAUL
TTITLE2=Everybody's got to learn sometimes THE KORGIS
TTITLE3=Precious thing RAY CHARLES and DEE DEE BRIDGEWATER
TTITLE4=Cherish KOOL and THE GANG
TTITLE5=What a wonderful world LOUIS ARMSTRONG
TTITLE6=Ma keen down FIVE LETTERS
TTITLE7=Bird of paradise SNOWY WHITE
TTITLE8=A whiter shade of pale PROCOL HARUM
TTITLE9=Nights in white satin THE MOODY BLUES
TTITLE10=Many rivers to cross JIMMY CLIFF
TTITLE11=Sister Jane TAI PHONG
TTITLE12=Sweet was my rose NEW VELVET GLOVE
TTITLE13=Classic ADRIAN GURVITZ
TTITLE14=Without you HARRY NILSON
TTITLE15=Sympathy RARE BIRD
TTITLE16=Feelings MORRIS ALBERT
TTITLE17=Only you THE FLYING PICKETS
TTITLE18=J'ai encore r v  d'elle IL ETAIT UNE FOIS
TTITLE19=Alone again GILBERT O'SULLIVAN
EXTD=
EXTT0=
EXTT1=
EXTT2=
EXTT3=
EXTT4=
EXTT5=
EXTT6=
EXTT7=
EXTT8=
EXTT9=
EXTT10=
EXTT11=
EXTT12=
EXTT13=
EXTT14=
EXTT15=
EXTT16=
EXTT17=
EXTT18=
EXTT19=
PLAYORDER=
